<svg id="circle-outline" xmlns="http://www.w3.org/2000/svg" width="250" height="250" viewBox="0 0 250 250"><g id="deviantart"><path id="outline" d="M250,125A125,125,0,1,1,125,0,125,125,0,0,1,250,125ZM125,12.5A112.5,112.5,0,1,0,237.5,125,112.5,112.5,0,0,0,125,12.5Z"/><polygon id="shape" points="181 179.4 181 133.51 145.61 133.51 180.81 67.81 180.81 35.06 147.6 35.06 128.77 70.26 69 70.26 69 116.15 104.21 116.15 69 181.96 69 214.72 101.75 214.72 101.98 214.94 102.1 214.72 102.21 214.72 102.21 214.52 121.03 179.4 181 179.4"/></g></svg>