<svg id="circle-outline" xmlns="http://www.w3.org/2000/svg" width="250" height="250" viewBox="0 0 250 250"><g id="fiverr"><path id="outline" d="M250,125A125,125,0,1,1,125,0,125,125,0,0,1,250,125ZM125,12.5A112.5,112.5,0,1,0,237.5,125,112.5,112.5,0,0,0,125,12.5Z"/><g id="shape"><path d="M181.49,176.21V121h0V94.79H104.44c-.46-16.57,12.61-15.44,12.61-15.44h9.58V52.71s-7.15,0-22.19,0c-36.17.09-35.31,42.07-35.31,42.07H55.81V121H69.13v55.22H55.81v24h63.67v-24h-15V121h41.73v55.22H133.44v24h60.75v-24Z"/><circle cx="164.42" cy="66.85" r="17.11"/></g></g></svg>