<svg id="circle-outline" xmlns="http://www.w3.org/2000/svg" width="250" height="250" viewBox="0 0 250 250"><g id="github"><path id="outline" d="M250,125A125,125,0,1,1,125,0,125,125,0,0,1,250,125ZM125,12.5A112.5,112.5,0,1,0,237.5,125,112.5,112.5,0,0,0,125,12.5Z"/><path id="shape" d="M152.39,153.11c-2.19.5-4.38.93-6.59,1.29a27.93,27.93,0,0,1,12.18,23V209.2H92.07v-11c0-.86.06-1.71.08-2.56A40.44,40.44,0,0,1,52.25,178c-.91-1.33-1.78-2.71-2.61-4.11-2.5-4.21-4.73-8.65-7-13A31.49,31.49,0,0,0,39,156.46a22.52,22.52,0,0,0-10.06-5.94c-1-.5-2.12-1-3.22-1.44a1.12,1.12,0,0,1,.42-2.15c.42,0,.83,0,1.25,0a33.21,33.21,0,0,1,21.43,6.22,28.48,28.48,0,0,1,2.91,2.5c1,1.18,2,2.41,3,3.67s1.88,2.56,2.8,3.85c7,12,20.48,20.45,34.55,17.74a74.21,74.21,0,0,1,.45-8,27.85,27.85,0,0,1,11.74-18.46c-2.21-.36-4.42-.8-6.6-1.29-1.2-.26-2.37-.57-3.52-.88-25.24-7-37.1-25.76-37.1-47.78,0-11.37,3.17-21.87,9.71-30.33C63,64.71,63,53.85,66.17,42.4a3.06,3.06,0,0,1,3.7-2.14c11.27,2.87,20.5,8.14,26.84,15.79l.88-.22A134.28,134.28,0,0,1,125,53V53a134.21,134.21,0,0,1,27.39,2.81l.89.21c6.33-7.65,15.57-12.92,26.83-15.79a3.07,3.07,0,0,1,3.71,2.14c3.21,11.45,3.2,22.31-.5,31.78,6.54,8.45,9.7,19,9.7,30.33,0,22-11.85,40.75-37.1,47.77C154.76,152.55,153.58,152.85,152.39,153.11Z"/></g></svg>