<svg id="circle-outline" xmlns="http://www.w3.org/2000/svg" width="250" height="250" viewBox="0 0 250 250"><g id="instagram"><path id="outline" d="M250,125A125,125,0,1,1,125,0,125,125,0,0,1,250,125ZM125,12.5A112.5,112.5,0,1,0,237.5,125,112.5,112.5,0,0,0,125,12.5Z"/><path d="M178.07,57.25a14.27,14.27,0,1,1-16,16A14.3,14.3,0,0,1,178.07,57.25Z"/><path d="M136.33,91.66a28.65,28.65,0,0,1,16.93,16.94c9.41,25.59-14.34,49.34-39.93,39.93A28.58,28.58,0,0,1,96.4,131.6C87,106,110.73,82.25,136.33,91.66Z"/><path d="M194.47,189a3.83,3.83,0,0,1-3.83,3.85H59.36A3.83,3.83,0,0,1,55.53,189V119.25a3.83,3.83,0,0,1,3.83-3.84h14.9a3.81,3.81,0,0,1,3.82,4c-.06,1-.1,2.05-.1,3.08a47,47,0,1,0,94,0c0-1,0-2.06-.1-3.08a3.81,3.81,0,0,1,3.82-4h14.9a3.83,3.83,0,0,1,3.83,3.84Z"/></g></svg>