<svg id="circle-outline" xmlns="http://www.w3.org/2000/svg" width="250" height="250" viewBox="0 0 250 250"><g id="linkedin"><path id="outline" d="M250,125A125,125,0,1,1,125,0,125,125,0,0,1,250,125ZM125,12.5A112.5,112.5,0,1,0,237.5,125,112.5,112.5,0,0,0,125,12.5Z"/><g id="shape"><path d="M92.51,69.15C92.51,79,85,86.7,74.26,86.7S56,79,56,69.15s7.52-17.53,18.26-17.53S92.51,59.31,92.51,69.15Z"/><rect x="58.33" y="102.99" width="31.86" height="95.4"/><path d="M194,128.4v70H162.14V134.13c0-8.77-2.87-11.1-7.16-11.1-5.19,0-9.84,3.76-14.32,10.92v64.43H108.8V103h27.75l2.32,10.74c8.42-9.5,17.36-14,29-14C184,99.77,194,110.14,194,128.4Z"/></g></g></svg>