<svg id="circle-outline" xmlns="http://www.w3.org/2000/svg" width="250" height="250" viewBox="0 0 250 250"><g id="pinterest"><path id="outline" d="M250,125A125,125,0,1,1,125,0,125,125,0,0,1,250,125ZM125,12.5A112.5,112.5,0,1,0,237.5,125,112.5,112.5,0,0,0,125,12.5Z"/><path id="shape" d="M160.66,146.52a36.86,36.86,0,0,1-13.54,7.87c-10.82,3.36-24.26-.24-29.7-10.19a138.41,138.41,0,0,1-23.85,61.93A6.21,6.21,0,0,1,92,207.72C87,211.1,87.25,197,87.09,194.31a119,119,0,0,1,.69-20.59c1.59-13.84,5.07-27.39,8.61-40.84a42,42,0,0,0,1.68-9c.12-3.51-.65-7-1.1-10.47A56.82,56.82,0,0,1,97.8,94c1.37-6.28,4-12.56,8.83-16.76S119,71.46,124.5,74.74c5.24,3.12,7.49,9.76,7.18,15.84s-2.73,11.83-4.89,17.53-4.16,11.69-3.57,17.75,4.43,12.21,10.35,13.65c4.66,1.14,9.68-.87,13.15-4.18s5.64-7.75,7.36-12.23c4.18-10.91,6.1-22.92,3.82-34.38s-9.08-22.29-19.31-27.94c-22-12.16-49.43,3.66-53.81,27.45a43.43,43.43,0,0,0,7.14,32.12,2,2,0,0,1-.11,2.38l-5.33,6.51a3.25,3.25,0,0,1-5.07-.08A60.87,60.87,0,0,1,68.74,99.74c-1.55-12,1.14-24.74,8.12-34.69C94,40.6,133.18,34.66,157.79,50.78c12.73,8.33,21.07,22.63,23.26,37.68s-1.48,30.69-9.09,43.86A57.6,57.6,0,0,1,160.66,146.52Z"/></g></svg>