<svg id="circle-outline" xmlns="http://www.w3.org/2000/svg" width="250" height="250" viewBox="0 0 250 250"><g id="skype"><path id="outline" d="M250,125A125,125,0,1,1,125,0,125,125,0,0,1,250,125ZM125,12.5A112.5,112.5,0,1,0,237.5,125,112.5,112.5,0,0,0,125,12.5Z"/><path d="M204.5,123.78A78.26,78.26,0,0,0,102.84,49.15a40.41,40.41,0,0,0-52.48,55.9,78.21,78.21,0,0,0,94.56,94.68,40.4,40.4,0,0,0,55.94-52.32A78.18,78.18,0,0,0,204.5,123.78Zm-69.22-13.59c18.89,5.4,29.5,13.31,29.5,30.39,0,19.79-18.71,31.48-42.45,31.48-16.35,0-30.22-5.62-39.58-13.9l-.08-.07-.28-.23h0a10.69,10.69,0,1,1,16-13.87,40.91,40.91,0,0,0,23.17,7.75c8.63,0,13.85-3.24,13.85-9,0-6.47-2.88-8.45-20.15-13.31C96.43,124,87.07,114.32,87.07,99.57c0-16.36,14.93-29.14,39-29.14,13.36,0,25.38,4.2,34.12,10.95a9.5,9.5,0,0,1,4.56,8c0,5.38-4.79,9.73-10.7,9.73a11,11,0,0,1-8.49-3.83,41.67,41.67,0,0,0-18.4-4.48c-7.74,0-11.52,2.87-11.52,7.2C115.67,103,118.19,105.15,135.28,110.19Z"/></g></svg>