<svg id="circle-outline" xmlns="http://www.w3.org/2000/svg" width="250" height="250" viewBox="0 0 250 250"><g id="slack"><path id="outline" d="M250,125A125,125,0,1,1,125,0,125,125,0,0,1,250,125ZM125,12.5A112.5,112.5,0,1,0,237.5,125,112.5,112.5,0,0,0,125,12.5Z"/><g id="shape"><rect x="129.92" y="33.69" width="38.79" height="86.63" rx="19.4"/><rect x="81.33" y="129.68" width="38.79" height="86.63" rx="19.4"/><rect x="153.79" y="105.77" width="38.79" height="86.63" rx="19.4" transform="translate(24.11 322.27) rotate(-90)"/><rect x="57.42" y="57.61" width="38.79" height="86.63" rx="19.4" transform="translate(-24.11 177.73) rotate(-90)"/><path d="M216.5,100.6v.65a19.07,19.07,0,0,1-19.07,19.07H178.37V100.6a19.07,19.07,0,1,1,38.13,0Z"/><path d="M100.4,34h.66A19.07,19.07,0,0,1,120.13,53.1V72.16H100.4a19.07,19.07,0,1,1,0-38.13Z"/><path d="M33.5,149.4v-.65a19.07,19.07,0,0,1,19.07-19.07H71.63V149.4a19.07,19.07,0,1,1-38.13,0Z"/><path d="M149.65,216H149a19.07,19.07,0,0,1-19.07-19.07V177.84h19.73a19.07,19.07,0,1,1,0,38.13Z"/></g></g></svg>