<svg id="circle-outline" xmlns="http://www.w3.org/2000/svg" width="250" height="250" viewBox="0 0 250 250"><g id="soundcloud"><path id="outline" d="M250,125A125,125,0,1,1,125,0,125,125,0,0,1,250,125ZM125,12.5A112.5,112.5,0,1,0,237.5,125,112.5,112.5,0,0,0,125,12.5Z"/><g id="shape"><path d="M129.43,87.62v78.43a1.57,1.57,0,0,0,.17.73,2.61,2.61,0,0,0,2.32,1.55h70.53l.21,0c1.1-.14,10.4-1.53,15.09-7.46,5-6.31,12.18-16.52,2.37-31.31-9.44-14.25-27.08-9.57-28.35-9.21l-.14,0-1,.41a42.27,42.27,0,0,0-13.94-27.71c-13.53-12.31-28.59-11.39-28.59-11.39s-8.55.2-13.07,1.83-4.33,1.68-4.33,1.68A2.7,2.7,0,0,0,129.43,87.62Z"/><path d="M28.43,134.27a1.1,1.1,0,0,0-2.18,0L25,145.36l1.25,11.08a1.1,1.1,0,0,0,2.18,0l1.25-11.08Z"/><path d="M36.45,127.56a1.05,1.05,0,0,0-2.06,0l-1.84,17.93,1.84,17.66a1.05,1.05,0,0,0,2.06,0l1.84-17.66Z"/><path d="M44.88,124c-.1-1.39-2.66-1.39-2.76,0l-1.57,21.7,1.57,20.43c.1,1.39,2.66,1.39,2.76,0l1.57-20.43Z"/><path d="M53,123.5c-.1-1.42-2.64-1.42-2.74,0l-1.55,22.17,1.55,20.86c.11,1.42,2.63,1.42,2.74,0l1.55-20.86Z"/><path d="M61,125c-.1-1.39-2.6-1.39-2.7,0l-1.54,21.11L58.31,167c.1,1.39,2.6,1.39,2.7,0l1.53-20.91Z"/><path d="M69.4,112.62a1.53,1.53,0,1,0-3.05,0l-1.73,33.06L66.35,167c.11,1.45,2.93,1.45,3.05,0l1.73-21.29Z"/><path d="M77.36,105.12c-.1-2.59-2.71-2.59-2.82,0L73,145.48l1.59,21.29c.11,1.44,2.71,1.44,2.82,0L79,145.48Z"/><path d="M85.58,101.59c-.11-2.81-3-2.81-3.1,0l-1.76,44,1.76,21.29c.12,1.44,3,1.44,3.1,0l1.76-21.29Z"/><path d="M93.47,100.35c-.1-2.91-2.62-2.91-2.72,0l-1.54,45.4L90.75,167c.11,1.45,2.62,1.45,2.72,0L95,145.75Z"/><path d="M101.6,101.2c-.1-2.86-2.72-2.86-2.82,0l-1.59,44.74,1.59,21c.11,1.42,2.71,1.42,2.82,0l1.59-21Z"/><path d="M109.92,103c-.12-2.8-3.18-2.8-3.3,0l-1.86,43.75,1.86,20.52c.13,1.39,3.17,1.39,3.3,0l1.86-20.52Z"/><path d="M118.14,95c-.13-3.31-3.45-3.31-3.58,0l-2,51.61,2,20.52c.14,1.39,3.44,1.39,3.58,0l2-20.52Z"/><path d="M126.23,90c-.11-3.52-2.91-3.52-3,0l-1.71,54.87,1.71,21.81c.12,1.48,2.9,1.48,3,0l1.71-21.81Z"/></g></g></svg>