<svg id="circle-outline" xmlns="http://www.w3.org/2000/svg" width="250" height="250" viewBox="0 0 250 250"><g id="spotify"><path id="outline" d="M250,125A125,125,0,1,1,125,0,125,125,0,0,1,250,125ZM125,12.5A112.5,112.5,0,1,0,237.5,125,112.5,112.5,0,0,0,125,12.5Z"/><path id="shape" d="M125,36.5A88.5,88.5,0,1,0,213.5,125,88.5,88.5,0,0,0,125,36.5Zm33.44,130c-22.47-13.9-52.73-16.4-77.78-8-6.5,2.19-9.27-8.08-2.82-10.25,27.59-9.29,61.24-6.25,86,9C169.62,160.88,164.28,170.07,158.44,166.46Zm8.27-23.55c-25.79-14.48-59.72-18.8-87.73-10-9.17,2.89-13.06-11.48-4-14.34,10.26-3.23,21.55-4.36,32.23-4.66a129.29,129.29,0,0,1,67,16.14C182.57,134.76,175.06,147.6,166.71,142.91Zm11.8-27.58c-20.52-13-45.17-16.45-69.07-15.52-12.54.48-23.82,1.67-36,4.92-9.28,2.48-13.2-11.87-4-14.34,13.26-3.54,27.38-5,41.05-5.5,26-.86,53.19,3.46,75.49,17.6C194.09,107.61,186.62,120.48,178.51,115.33Z"/></g></svg>