<svg id="circle-outline" xmlns="http://www.w3.org/2000/svg" width="250" height="250" viewBox="0 0 250 250"><g id="stackoverflow"><path id="outline" d="M250,125A125,125,0,1,1,125,0,125,125,0,0,1,250,125ZM125,12.5A112.5,112.5,0,1,0,237.5,125,112.5,112.5,0,0,0,125,12.5Z"/><g id="shape"><polygon points="169.75 188.85 73.75 188.85 73.75 146.85 60.75 146.85 60.75 188.85 60.75 202.85 74.59 202.85 169.91 202.85 183.75 202.85 183.75 188.85 183.75 146.85 169.75 146.85 169.75 188.85"/><rect x="86.75" y="160.85" width="69" height="14"/><rect x="116.38" y="108.57" width="13.88" height="68.8" transform="translate(-43.42 231.54) rotate(-77.2)"/><rect x="124.26" y="85.17" width="13.88" height="68.8" transform="translate(-34.27 183.83) rotate(-63.57)"/><rect x="137.87" y="63.28" width="13.88" height="68.8" transform="translate(-22.7 147.19) rotate(-50.47)"/><rect x="156.47" y="44.98" width="13.88" height="68.8" transform="translate(-15.44 111.25) rotate(-36.01)"/></g></g></svg>