<svg id="circle-outline" xmlns="http://www.w3.org/2000/svg" width="250" height="250" viewBox="0 0 250 250"><g id="tumblr"><path id="outline" d="M250,125A125,125,0,1,1,125,0,125,125,0,0,1,250,125ZM125,12.5A112.5,112.5,0,1,0,237.5,125,112.5,112.5,0,0,0,125,12.5Z"/><path id="shape" d="M177,198.2c-10,7-22.79,11.82-34.78,11.82-29.22-.25-43.45-16.73-43.45-47.94V100.65H73V73.18h5.51C97.45,72.06,98.77,47.9,98.77,47.9V44.47L138.22,40v33.2h30.46l-4.24,27.47H138.22v60.93c0,12.74,4.24,17.23,12.49,17.23,4.49,0,9-1.25,14.23-4.25Z"/></g></svg>