<svg id="circle-outline" xmlns="http://www.w3.org/2000/svg" width="250" height="250" viewBox="0 0 250 250"><g id="twitch"><path id="outline" d="M250,125A125,125,0,1,1,125,0,125,125,0,0,1,250,125ZM125,12.5A112.5,112.5,0,1,0,237.5,125,112.5,112.5,0,0,0,125,12.5Z"/><g id="shape"><rect x="148.42" y="87.5" width="13.33" height="39.94"/><path d="M61.85,48.28l-10.35,26V181.58H88.07v20.14h20L128,181.79h30.36l40.16-40.17V48.28ZM185,134.66l-23.46,23.46H125l-20,20-.1-19.84H74.84v-97H185Z"/><rect x="111.66" y="87.5" width="13.33" height="39.94"/></g></g></svg>