<svg id="circle-outline" xmlns="http://www.w3.org/2000/svg" width="250" height="250" viewBox="0 0 250 250"><g id="twiter"><path id="outline" d="M250,125A125,125,0,1,1,125,0,125,125,0,0,1,250,125ZM125,12.5A112.5,112.5,0,1,0,237.5,125,112.5,112.5,0,0,0,125,12.5Z"/><path id="shape" d="M200,82.55a74.13,74.13,0,0,1-15.86,4.63v0c6.56-4.48,10.94-10,12.27-16-3.67,3.59-10.13,6.31-17.91,7.43A28.09,28.09,0,0,0,130.15,97.7a27.52,27.52,0,0,0,.75,6.39c-25.86-3.86-45-12.62-57.61-27.83A27.13,27.13,0,0,0,70,89.33a26.57,26.57,0,0,0,12,22.46,25.93,25.93,0,0,1-13.08-4.42c.21,14,9.71,25.64,22.22,28.13a36,36,0,0,1-6,.5,37.65,37.65,0,0,1-5.47-.41c2.29,10.53,13,18.5,25.84,18.5q.67,0,1.35,0a53.26,53.26,0,0,1-32.57,11.46A51.75,51.75,0,0,1,50,159.41a82.3,82.3,0,0,0,54.74,20.64c45,0,81.49-35.66,81.49-79.64,0-.6,0-1.2,0-1.8,0-.3,0-.61,0-.91s0-.55,0-.82A45.77,45.77,0,0,0,200,82.55Z"/></g></svg>