<svg id="circle-outline" xmlns="http://www.w3.org/2000/svg" width="250" height="250" viewBox="0 0 250 250"><g id="vimeo"><path id="outline" d="M250,125A125,125,0,1,1,125,0,125,125,0,0,1,250,125ZM125,12.5A112.5,112.5,0,1,0,237.5,125,112.5,112.5,0,0,0,125,12.5Z"/><path id="shape" d="M133.69,92.38S136.27,66,168.44,53.45s41.5,16.73,39.89,29S195.46,131,172.94,157.68,133.69,195,133.69,195s-30.56,20.27-44.07-24.12S69,104.28,69,104.28s-4.51-17-15.77-6.44S37.19,100.74,46.19,85,82.87,54.42,82.87,54.42,108.28,41.23,111.5,75s14.47,68.85,18,71.42,18.66-12.55,22.84-24.13,8.05-23.8,2.9-29.91S141.42,85.94,133.69,92.38Z"/></g></svg>