<svg id="circle-outline" xmlns="http://www.w3.org/2000/svg" width="250" height="250" viewBox="0 0 250 250"><g id="vine"><path id="outline" d="M250,125A125,125,0,1,1,125,0,125,125,0,0,1,250,125ZM125,12.5A112.5,112.5,0,1,0,237.5,125,112.5,112.5,0,0,0,125,12.5Z"/><path id="shape" d="M186.33,125c10-1.12,11-1.92,11-1.92L197,143.3a45.8,45.8,0,0,1-10,3c-6.84,1.43-8.92.95-8.92.95a267.86,267.86,0,0,1-16.39,26.59c-9.08,12.73-27.86,29.92-27.86,29.92s-9.7,9.86-20.37,1.43-27.85-27.53-35-43a286.78,286.78,0,0,1-19.57-54.43,252.93,252.93,0,0,1-6.84-41H80.65s4.13,33.1,8.91,48.37,10.67,29.13,10.67,29.13,3,6.53,9.71,17.83a85.8,85.8,0,0,0,13.52,17.66s9.16-4.81,16.87-18.46c7.49-13.24,7-12.57,7-12.57l4-8.44s-28.65-15.44-29.12-50S139.7,47.17,139.7,47.17s21.16-13.05,41.53,0S198.9,87.29,196,98.42s-4.77,13.22-4.77,13.22-24.5.94-23.07-8.92,3.49-18.14,1.9-24.67-4.29-11.62-10.18-11S148.76,72.32,148.6,85.7s2.24,18.29,9.08,27.68S176.3,126.11,186.33,125Z"/></g></svg>