<svg id="circle-outline" xmlns="http://www.w3.org/2000/svg" width="250" height="250" viewBox="0 0 250 250"><g id="whatsup"><path id="outline" d="M250,125A125,125,0,1,1,125,0,125,125,0,0,1,250,125ZM125,12.5A112.5,112.5,0,1,0,237.5,125,112.5,112.5,0,0,0,125,12.5Z"/><g id="shape"><path d="M161.4,139c-1.15-.46-14-6.75-14-6.75s-3-1.61-4.46.23S137,140,137,140s-.75,2.11-5.5-.35-10.31-5.19-16-11.46-7-9.36-7-9.36-1.12-1.41.73-3.26a69.55,69.55,0,0,0,4.63-5.54s1-1.33-.38-4.72l-5.67-13.56s-.92-2.35-2.75-2.35h-4.18a3.4,3.4,0,0,0-1.5.35c-2.46,1.24-10,5.9-9.71,16.08.4,12.13,10.93,25,15.28,29.82s13.68,13.39,22.32,16.71,12.76,4.46,12.76,4.46,8.7,2.12,13.62-1.14,8.88-6.7,9-10.76,0-4.29,0-4.29A1.88,1.88,0,0,0,161.4,139Z"/><path d="M126.11,49A74.39,74.39,0,0,0,62.32,161.67L49.5,201l39.87-12.89a74,74,0,0,0,35.12,9.68c41.05.88,75.36-32.13,76-73.17A74.39,74.39,0,0,0,126.11,49ZM127.2,185a61.27,61.27,0,0,1-35.08-10.23l-23.91,8.05L76,159.09A61.56,61.56,0,1,1,127.2,185Z"/></g></g></svg>