<svg id="square" xmlns="http://www.w3.org/2000/svg" width="250" height="250" viewBox="0 0 250 250"><g id="dribbble"><path d="M134.91,94.85c23.94-9.18,38.23-21.57,46.51-31.56A83.64,83.64,0,0,0,102,44.58,399.26,399.26,0,0,1,129.89,86Q132.37,90.23,134.91,94.85Z"/><path d="M73.23,190.65a83.53,83.53,0,0,0,84.82,11.18,259.55,259.55,0,0,0-16.73-63.39C113,145.8,90.16,163.29,73.23,190.65Z"/><path d="M122.52,99c-1.19-2.15-2.37-4.22-3.55-6.23A384.64,384.64,0,0,0,89.36,49.34a83.94,83.94,0,0,0-46.19,58.28C76.32,108.62,102.26,105,122.52,99Z"/><path d="M136.33,126.57c-2.47-5.55-5-10.86-7.58-15.89-21.41,6.64-46.25,10-74.36,10q-6.35,0-12.91-.23c-.09,1.51-.13,3-.13,4.57a83.32,83.32,0,0,0,22.31,56.81C84.71,149.08,111.6,133.48,136.33,126.57Z"/><path d="M0,0V250H250V0ZM221.43,128.44a94.91,94.91,0,0,1-1.34,13,96.77,96.77,0,0,1-48.33,67.92,94.11,94.11,0,0,1-12.46,5.8A96.38,96.38,0,0,1,66.85,202a93.85,93.85,0,0,1-9.95-8.65A96.14,96.14,0,0,1,28.5,125c0-1.75.05-3.48.15-5.21A94.66,94.66,0,0,1,30.19,107,96.77,96.77,0,0,1,81,39.15,96.54,96.54,0,0,1,221.5,125C221.5,126.14,221.48,127.29,221.43,128.44Z"/><path d="M170.25,90.77A139.89,139.89,0,0,1,141,106.38c2.76,5.48,5.49,11.25,8.12,17.3,4.56-.8,9-1.32,13.22-1.65a167.19,167.19,0,0,1,46.34,3.22V125a83.19,83.19,0,0,0-18.38-52.25A107.72,107.72,0,0,1,170.25,90.77Z"/><path d="M162.83,134.87c-3,.24-5.86.56-8.72,1a274.5,274.5,0,0,1,16,59.54,83.81,83.81,0,0,0,37.46-57.19A155.13,155.13,0,0,0,162.83,134.87Z"/></g></svg>