<svg id="square" xmlns="http://www.w3.org/2000/svg" width="250" height="250" viewBox="0 0 250 250"><g id="fiverr"><polygon points="58.89 89.24 58.87 89.23 58.87 89.24 58.89 89.24"/><path d="M0,0V250H250V0ZM171.66,35.92a20.25,20.25,0,1,1-20.25,20.25A20.24,20.24,0,0,1,171.66,35.92Zm35.23,178.16H135V185.61h15.07V120.26H100.67v65.35h17.79v28.47H43.11V185.61H58.87V120.26h0v0H43.11v-31H58.87s-1-49.68,41.8-49.79c17.79,0,26.25,0,26.25,0V71H115.59s-15.47-1.34-14.92,18.27h91.24v31h0v65.35h15Z"/></g></svg>