<svg id="square" xmlns="http://www.w3.org/2000/svg" width="250" height="250" viewBox="0 0 250 250"><g id="github"><path d="M0,0V250H250V0ZM159.44,176.73c-1.23.34-2.49.66-3.78,1-2.34.53-4.71,1-7.08,1.38a30,30,0,0,1,13.1,24.75V238H90.81V226.19c0-.91.07-1.83.08-2.74-16.57,2.58-33.81-4.89-42.9-19-1-1.43-1.91-2.91-2.81-4.42-2.68-4.52-5.08-9.3-7.48-13.95a33.23,33.23,0,0,0-4-4.75,24.14,24.14,0,0,0-10.82-6.39c-1.13-.54-2.28-1.06-3.45-1.55a1.21,1.21,0,0,1,.44-2.32h1.35a35.75,35.75,0,0,1,23,6.69,30.47,30.47,0,0,1,3.13,2.69c1.1,1.27,2.15,2.59,3.17,4s2,2.75,3,4.14c7.47,12.91,22,22,37.15,19.07a82.91,82.91,0,0,1,.49-8.59,29.57,29.57,0,0,1,1.14-4.61,30.2,30.2,0,0,1,11.48-15.23c-2.38-.4-4.75-.86-7.1-1.4-1.28-.28-2.55-.6-3.78-.94-27.14-7.55-39.89-27.7-39.89-51.37,0-12.23,3.4-23.52,10.44-32.61-4-10.18-4-21.86-.54-34.17a3.3,3.3,0,0,1,4-2.3c12.11,3.09,22,8.76,28.86,17l1-.23a144.35,144.35,0,0,1,29.45-3V70a144.43,144.43,0,0,1,29.45,3c.32.07.63.14.95.23,6.81-8.23,16.74-13.89,28.85-17a3.3,3.3,0,0,1,4,2.3c3.45,12.31,3.44,24-.54,34.17,7,9.09,10.43,20.38,10.43,32.61C199.33,149,186.59,169.18,159.44,176.73Z"/></g></svg>