<svg id="square" xmlns="http://www.w3.org/2000/svg" width="250" height="250" viewBox="0 0 250 250"><g id="instagram"><path d="M0,0V250H250V0ZM184.3,49.31a15.88,15.88,0,1,1-17.81,17.81A15.9,15.9,0,0,1,184.3,49.31Zm-46.46,38.3a31.89,31.89,0,0,1,18.85,18.85c10.47,28.48-16,54.92-44.45,44.45A31.87,31.87,0,0,1,93.4,132.06C82.92,103.58,109.36,77.14,137.84,87.61ZM202.56,196a4.27,4.27,0,0,1-4.27,4.27H52.18A4.27,4.27,0,0,1,47.91,196V118.31A4.27,4.27,0,0,1,52.18,114H68.76A4.25,4.25,0,0,1,73,118.55c-.07,1.13-.11,2.27-.11,3.43a52.34,52.34,0,1,0,104.67,0c0-1.16,0-2.3-.11-3.43a4.25,4.25,0,0,1,4.25-4.51h16.58a4.27,4.27,0,0,1,4.27,4.27Z"/></g></svg>