<svg id="square" xmlns="http://www.w3.org/2000/svg" width="250" height="250" viewBox="0 0 250 250"><g id="pinterest"><path d="M0,0V250H250V0ZM172,132a57.32,57.32,0,0,1-11.3,14.19,37,37,0,0,1-13.53,7.88c-10.83,3.36-24.26-.25-29.71-10.19a138.34,138.34,0,0,1-23.85,61.93A6,6,0,0,1,92,207.43C87,210.82,87.26,196.74,87.09,194a118,118,0,0,1,.7-20.58c1.59-13.85,5.07-27.39,8.61-40.85a41.14,41.14,0,0,0,1.67-9c.13-3.51-.65-7-1.1-10.47a57.07,57.07,0,0,1,.83-19.33c1.37-6.28,4-12.56,8.84-16.76s12.34-5.82,17.87-2.53c5.23,3.12,7.49,9.75,7.17,15.84s-2.72,11.83-4.89,17.52-4.15,11.69-3.56,17.76,4.43,12.21,10.35,13.65c4.66,1.14,9.67-.87,13.15-4.18s5.64-7.75,7.35-12.23c4.18-10.91,6.1-22.92,3.83-34.39s-9.09-22.28-19.32-27.93c-22-12.17-49.43,3.66-53.81,27.45a43.35,43.35,0,0,0,7.15,32.11,2,2,0,0,1-.12,2.39L86.48,129a3.24,3.24,0,0,1-5.06-.07A60.78,60.78,0,0,1,68.75,99.46c-1.56-12,1.13-24.75,8.12-34.69,17.18-24.46,56.32-30.4,80.93-14.28,12.72,8.34,21.06,22.64,23.26,37.69S179.58,118.87,172,132Z"/></g></svg>