<svg id="square" xmlns="http://www.w3.org/2000/svg" width="250" height="250" viewBox="0 0 250 250"><g id="reddit"><path d="M156,173.94c-18.76,14-43.6,14.23-62.4,0-3.34-2.53-6.59,3.13-3.29,5.63a57.29,57.29,0,0,0,69,0C162.6,177.09,159.35,171.43,156,173.94Z"/><path d="M106.88,141.53A14.93,14.93,0,1,0,92,156.46,14.94,14.94,0,0,0,106.88,141.53Z"/><path d="M157.63,126.6a14.93,14.93,0,1,0,14.93,14.93A14.93,14.93,0,0,0,157.63,126.6Z"/><path d="M0,0V250H250V0ZM208.32,146.24a40.63,40.63,0,0,1,.5,6.25c0,31.83-37.42,57.62-83.58,57.62s-83.58-25.79-83.58-57.62a40.43,40.43,0,0,1,.45-6,21.57,21.57,0,1,1,24.06-34.72C80.33,102,99.52,95.72,120.82,95l10.31-55.07,39.16,8a15,15,0,1,1-1.82,8.87l-30.14-6.18L130,95c21,.82,39.93,7,54,16.55a21.57,21.57,0,1,1,24.32,34.71Z"/></g></svg>