<svg id="square" xmlns="http://www.w3.org/2000/svg" width="250" height="250" viewBox="0 0 250 250"><g id="skype"><path d="M0,0V250H250V0ZM213.15,168.44a44.81,44.81,0,0,1-66.06,39.43,86.73,86.73,0,0,1-104.85-105,44.8,44.8,0,0,1,58.19-62,86.76,86.76,0,0,1,108.68,109A44.55,44.55,0,0,1,213.15,168.44Z"/><path d="M127.42,87a46.22,46.22,0,0,1,20.41,5,12.26,12.26,0,0,0,9.42,4.25c6.55,0,11.86-4.83,11.86-10.79a10.53,10.53,0,0,0-5.06-8.83c-9.69-7.49-23-12.13-37.83-12.13C99.5,64.5,83,78.66,83,96.8c0,16.36,10.37,27.13,31.31,33.12,19.15,5.38,22.33,7.58,22.33,14.75,0,6.38-5.78,10-15.35,10-9.34,0-18.19-3.4-25.69-8.59a11.85,11.85,0,1,0-17.79,15.37h0l.31.27.08.07C88.53,171,103.91,177.18,122,177.18c26.33,0,47.07-13,47.07-34.9,0-19-11.77-27.72-32.71-33.7-19-5.59-21.75-8-21.75-13.57C114.65,90.22,118.85,87,127.42,87Z"/></g></svg>