<svg id="square" xmlns="http://www.w3.org/2000/svg" width="250" height="250" viewBox="0 0 250 250"><g id="slack"><path d="M0,0V250H250V0ZM130.41,46A21.31,21.31,0,0,1,173,46V98.55a21.31,21.31,0,1,1-42.61,0Zm-64,105.79a20.95,20.95,0,1,1-41.89,0v-.71a20.95,20.95,0,0,1,21-21H66.39ZM119.65,204A21.31,21.31,0,0,1,77,204V151.45a21.31,21.31,0,1,1,42.61,0ZM98.34,119.86H45.8a21.31,21.31,0,0,1,0-42.61H98.34a21.31,21.31,0,1,1,0,42.61ZM119.65,67H98a20.94,20.94,0,0,1,0-41.88h.72a20.95,20.95,0,0,1,21,20.94Zm32.42,158h-.72A20.93,20.93,0,0,1,130.41,204V183h21.66a20.94,20.94,0,1,1,0,41.88Zm52.13-52.17H151.66a21.31,21.31,0,1,1,0-42.61H204.2a21.31,21.31,0,0,1,0,42.61Zm21.3-73.84a20.95,20.95,0,0,1-20.95,21H183.61V98.19a20.95,20.95,0,0,1,41.89,0Z"/></g></svg>