<svg id="square" xmlns="http://www.w3.org/2000/svg" width="250" height="250" viewBox="0 0 250 250"><g id="snapchat"><path d="M0,0V250H250V0ZM204.76,176.1c-15,2.86-14.28,4.11-14.28,4.11s-4.65.89-1.61,4.64,8.21,8-6.25,5.89-18.56-1.78-21.78-.18-13.59,12.14-20.45,14.28c-3.23,1-9.56,1.43-15.36,1.58H125c-5.8-.15-12.13-.57-15.36-1.58-6.86-2.14-17.24-12.67-20.45-14.28s-7.32-2-21.78.18-9.28-2.14-6.25-5.89-1.61-4.64-1.61-4.64.72-1.25-14.28-4.11-9.1-9.63-9.1-9.63,14.1.89,30.88-16.07c16.44-16.61,7-21.06,6.62-21.23.09.08.18.38-11.8-4.79C48.6,118.67,50.42,112,56.13,110.59s18.53,2.15,18.53,2.15L74.7,96S73.27,72.75,88.62,56.69C99.79,45,116.62,43.52,125,43.58h.53c8.5,0,24.92,1.64,35.88,13.11C176.73,72.75,175.3,96,175.3,96l0,16.78s12.82-3.57,18.53-2.15,7.53,8.08-5.71,13.79c-12,5.17-11.89,4.87-11.8,4.79-.39.17-9.82,4.62,6.62,21.23,16.78,17,30.88,16.07,30.88,16.07S219.75,173.25,204.76,176.1Z"/></g></svg>