<svg id="square" xmlns="http://www.w3.org/2000/svg" width="250" height="250" viewBox="0 0 250 250"><g id="soundcloud"><path d="M0,0V250H250V0ZM24.51,157.72a1.14,1.14,0,0,1-2.27,0l-1.3-11.54,1.3-11.53a1.14,1.14,0,0,1,2.27,0l1.3,11.53Zm8.35,7a1.1,1.1,0,0,1-2.15,0L28.8,146.32l1.91-18.65a1.1,1.1,0,0,1,2.15,0l1.9,18.65Zm8.77,3.05c-.11,1.45-2.77,1.45-2.88,0l-1.63-21.26,1.63-22.58c.1-1.45,2.78-1.45,2.88,0l1.63,22.58Zm8.39.47c-.11,1.47-2.74,1.47-2.85,0l-1.61-21.71,1.61-23.07c.11-1.48,2.75-1.48,2.85,0l1.61,23.07Zm8.39.46c-.1,1.45-2.71,1.45-2.81,0L54,146.92l1.6-22c.1-1.45,2.71-1.45,2.81,0l1.59,22Zm8.73,0c-.12,1.5-3,1.5-3.18,0l-1.8-22.16L64,112.11a1.59,1.59,0,1,1,3.18,0l1.8,34.41Zm8.28-.21c-.11,1.5-2.81,1.5-2.92,0l-1.66-22.16,1.66-42c.1-2.69,2.82-2.69,2.93,0l1.65,42Zm8.56.07c-.12,1.5-3.1,1.5-3.23,0l-1.82-22.16,1.82-45.74c.12-2.93,3.11-2.93,3.23,0l1.83,45.74Zm8.21.21c-.11,1.5-2.72,1.5-2.83,0l-1.6-22.16,1.6-47.24c.1-3,2.73-3,2.83,0l1.6,47.24Zm8.46-.13c-.12,1.48-2.82,1.48-2.93,0l-1.66-21.83,1.66-46.55c.1-3,2.82-3,2.93,0l1.66,46.55Zm8.65.31c-.13,1.45-3.29,1.45-3.42,0l-1.94-21.35,1.94-45.52c.12-2.92,3.3-2.92,3.42,0l1.94,45.52Zm8.56-.07c-.14,1.45-3.58,1.45-3.72,0L112,147.51l2.11-53.7c.13-3.45,3.58-3.45,3.72,0l2.11,53.7Zm8.42-.49c-.12,1.54-3,1.54-3.14,0l-1.78-22.7,1.78-57.1c.11-3.66,3-3.66,3.14,0l1.78,57.1Zm95.24-6.07c-4.88,6.18-14.56,7.62-15.7,7.77l-.23,0H132.2a2.73,2.73,0,0,1-2.42-1.62,1.62,1.62,0,0,1-.17-.75V86.11a2.83,2.83,0,0,1,1.27-2.53s.18-.19,4.5-1.75c4.71-1.69,13.61-1.9,13.61-1.9s15.67-1,29.75,11.86a44,44,0,0,1,14.51,28.82l1.09-.42.14,0c1.32-.37,19.68-5.24,29.51,9.59C234.19,145.12,226.7,155.74,221.52,162.3Z"/></g></svg>