<svg id="square" xmlns="http://www.w3.org/2000/svg" width="250" height="250" viewBox="0 0 250 250"><g id="spotify"><path d="M0,0V250H250V0ZM125,225A99.95,99.95,0,1,1,225,125,100,100,0,0,1,125,225Z"/><path d="M168.83,161.47c-27.93-17.27-65.93-20.71-97.1-10.21-7.28,2.45-4.15,14.05,3.19,11.57,28.3-9.53,62.47-6.7,87.85,9C169.36,175.9,175.39,165.53,168.83,161.47Z"/><path d="M180.58,130.72A146,146,0,0,0,105,112.49c-12.07.33-24.82,1.61-36.4,5.26C58.28,121,62.67,137.21,73,134c31.64-10,70-5.08,99.08,11.28C181.54,150.53,190,136,180.58,130.72Z"/><path d="M193.91,99.58c-25.18-16-55.86-20.85-85.26-19.88-15.43.51-31.38,2.21-46.35,6.21-10.44,2.79-6,19,4.46,16.2,13.76-3.67,26.5-5,40.67-5.56,27-1,54.83,2.83,78,17.53C194.59,119.89,203,105.36,193.91,99.58Z"/></g></svg>