<svg id="square" xmlns="http://www.w3.org/2000/svg" width="250" height="250" viewBox="0 0 250 250"><g id="twiter"><path d="M0,0V250H250V0ZM195.5,92.33c0,.31,0,.63,0,.94s0,.7,0,1.06c0,.69,0,1.38,0,2.07,0,50.65-42,91.72-93.85,91.72a94.73,94.73,0,0,1-63-23.77,59.56,59.56,0,0,0,27.93,7c13.75,0,26.59-4.83,37.52-13.2q-.78,0-1.56,0c-14.81,0-27.12-9.18-29.76-21.31a42,42,0,0,0,6.3.48,41.28,41.28,0,0,0,6.93-.58c-14.4-2.87-25.35-16.24-25.58-32.4a29.8,29.8,0,0,0,15.06,5.09A30.56,30.56,0,0,1,61.63,83.64a31.34,31.34,0,0,1,3.82-15c14.48,17.52,36.57,27.59,66.36,32a31.35,31.35,0,0,1-.87-7.36,32.36,32.36,0,0,1,55.67-22c9-1.28,16.4-4.42,20.63-8.56-1.53,6.95-6.58,13.29-14.14,18.45a0,0,0,0,1,0,0,84.65,84.65,0,0,0,18.27-5.34A52.65,52.65,0,0,1,195.5,92.33Z"/></g></svg>