<svg id="square" xmlns="http://www.w3.org/2000/svg" width="250" height="250" viewBox="0 0 250 250"><g id="vine"><path d="M0,0V250H250V0ZM173.18,74.84c-1.7-7-4.59-12.42-10.88-11.74S150.39,68.72,150.22,83s2.39,19.55,9.7,29.59,19.9,13.6,30.61,12.42S202.26,123,202.26,123l-.34,21.6a48.46,48.46,0,0,1-10.71,3.23c-7.31,1.53-9.52,1-9.52,1a287.74,287.74,0,0,1-17.52,28.4c-9.7,13.6-29.76,32-29.76,32s-10.38,10.54-21.77,1.53S82.88,181.3,75.22,164.79s-14.79-33.66-20.91-58.15A269.3,269.3,0,0,1,47,62.77H77.61S82,98.13,87.14,114.46s11.39,31.12,11.39,31.12,3.23,7,10.37,19a91.69,91.69,0,0,0,14.46,18.87s9.78-5.14,18-19.73c7.08-12.51,7.49-13.4,7.49-13.43h0l4.24-9S122.5,124.83,122,87.93s18.71-46.09,18.71-46.09,22.61-14,44.37,0S204,84.7,200.9,96.6s-5.1,14.12-5.1,14.12-26.18,1-24.65-9.53S174.88,81.81,173.18,74.84Z"/></g></svg>