<svg id="square" xmlns="http://www.w3.org/2000/svg" width="250" height="250" viewBox="0 0 250 250"><g id="whatsup"><path d="M125,47.12A75.91,75.91,0,0,0,64.52,167L55,196.26l29.49-9.92A75.93,75.93,0,1,0,125,47.12Zm46.41,102.4c-.21,5-5.08,9.24-11.15,13.27s-16.8,1.41-16.8,1.41-5.09-1.41-15.74-5.51S105.51,144,100.15,138.08,81.79,116.27,81.3,101.3c-.41-12.55,9-18.29,12-19.82a4.12,4.12,0,0,1,1.85-.43h5.16c2.26,0,3.39,2.89,3.39,2.89l7,16.73c1.75,4.18.48,5.82.48,5.82a84.51,84.51,0,0,1-5.72,6.83c-2.27,2.28-.9,4-.9,4s1.64,3.81,8.69,11.54S127.11,140,133,143s6.78.43,6.78.43,5.57-6.92,7.34-9.18,5.5-.28,5.5-.28,15.89,7.76,17.3,8.33a2.3,2.3,0,0,1,1.48,1.9S171.58,144.5,171.37,149.52Z"/><path d="M0,0V250H250V0ZM218.1,124.51c-.79,50.62-43.11,91.33-93.72,90.24a91.24,91.24,0,0,1-43.33-11.93L31.89,218.71,47.7,170.22a91.74,91.74,0,1,1,170.4-45.71Z"/></g></svg>