<svg id="square" xmlns="http://www.w3.org/2000/svg" width="250" height="250" viewBox="0 0 250 250"><g id="yelp"><path d="M0,0V250H250V0ZM51.42,156.22c-1.66-12.22-.8-24,.41-29.33s4.29-12.26,12.31-9S100.28,133,100.28,133s18.48,8.56,3.42,17.39a16.46,16.46,0,0,1-3.21,1.43l-38,12.48S53.07,168.44,51.42,156.22Zm63.29,65.62c-12.11-2.33-23-6.88-27.66-9.74s-10.26-8-4.62-14.54,25.89-29.42,25.89-29.42,14-14.78,17.58,2.3a16.47,16.47,0,0,1,.33,3.5l-.28,40S126.82,224.17,114.71,221.84Zm-9.65-113.25L69.61,52.66S62.92,42.9,72.29,39,79,34.73,95.16,30.59,117,28.18,117,28.18s5,0,5.09,6.69,4.28,70.91,4.28,70.91S125.67,138.56,105.06,108.59Zm35.61,15.68a16.78,16.78,0,0,1,1.81-3l24-32s5.39-8.77,13.75.29,14.4,19.17,16.48,24.26,3.52,12.51-4.91,14.44-38.3,8.32-38.3,8.32S133.4,140.14,140.67,124.27Zm57,56.16c-5.89,10.84-13.51,19.8-17.66,23.42s-10.71,7.36-15.25,0-20.21-33.58-20.21-33.58-9.84-17.83,7.52-16.06a16.88,16.88,0,0,1,3.44.74l38,12.37S203.54,169.6,197.65,180.43Z"/></g></svg>