<svg id="square-outline" xmlns="http://www.w3.org/2000/svg" width="250" height="250" viewBox="0 0 250 250"><g id="dribbble"><path id="outline" d="M250,250H0V0H250ZM237.25,12.75h-225v225h225Z"/><path id="shape" d="M198.11,62.09A96.24,96.24,0,0,0,81,39.15,96.77,96.77,0,0,0,30.19,107a94.66,94.66,0,0,0-1.54,12.79c-.1,1.73-.15,3.46-.15,5.21a96.14,96.14,0,0,0,28.4,68.3A93.85,93.85,0,0,0,66.85,202a96.3,96.3,0,0,0,92.45,13.24,94.11,94.11,0,0,0,12.46-5.8,96.77,96.77,0,0,0,48.33-67.92,94.91,94.91,0,0,0,1.34-13c0-1.15.07-2.3.07-3.44A96,96,0,0,0,198.11,62.09ZM125,41.36a83.39,83.39,0,0,1,56.42,21.93c-8.28,10-22.57,22.38-46.51,31.56q-2.53-4.62-5-8.84A399.26,399.26,0,0,0,102,44.58,83.29,83.29,0,0,1,125,41.36Zm-35.64,8A384.64,384.64,0,0,1,119,92.79c1.18,2,2.36,4.08,3.55,6.23-20.26,6-46.2,9.6-79.35,8.6A83.94,83.94,0,0,1,89.36,49.34ZM63.66,181.81A83.32,83.32,0,0,1,41.35,125c0-1.54,0-3.06.13-4.57q6.57.22,12.91.23c28.11,0,53-3.34,74.36-10,2.57,5,5.11,10.34,7.58,15.89C111.6,133.48,84.71,149.08,63.66,181.81ZM125,208.64a83.26,83.26,0,0,1-51.77-18c16.93-27.36,39.73-44.85,68.09-52.21a259.55,259.55,0,0,1,16.73,63.39A83.2,83.2,0,0,1,125,208.64Zm45.14-13.24a274.5,274.5,0,0,0-16-59.54c2.86-.43,5.77-.75,8.72-1a155.13,155.13,0,0,1,44.77,3.34A83.81,83.81,0,0,1,170.14,195.4Zm38.51-70.15A167.19,167.19,0,0,0,162.31,122c-4.23.33-8.66.85-13.22,1.65-2.63-6.05-5.36-11.82-8.12-17.3a139.89,139.89,0,0,0,29.28-15.61,108.07,108.07,0,0,0,20-18A83.19,83.19,0,0,1,208.65,125Z"/></g></svg>