<svg id="square-outline" xmlns="http://www.w3.org/2000/svg" width="250" height="250" viewBox="0 0 250 250"><g id="github"><path id="outline" d="M250,250H0V0H250ZM237.25,12.75h-225v225h225Z"/><path id="shape" d="M155.65,177.6q-3.53.79-7.09,1.38a30,30,0,0,1,13.1,24.75V237.9H90.8V226.11c0-.91.06-1.83.08-2.74A43.49,43.49,0,0,1,48,204.32c-1-1.43-1.91-2.91-2.81-4.42-2.69-4.52-5.09-9.3-7.49-14a33.15,33.15,0,0,0-4-4.75,24.19,24.19,0,0,0-10.82-6.39c-1.13-.54-2.28-1.06-3.46-1.55a1.21,1.21,0,0,1,.45-2.32h1.35a35.77,35.77,0,0,1,23,6.69,30.47,30.47,0,0,1,3.13,2.69c1.1,1.27,2.15,2.59,3.17,3.95s2,2.75,3,4.14c7.47,12.91,22,22,37.15,19.07a80.2,80.2,0,0,1,.48-8.59,30.74,30.74,0,0,1,1.14-4.61A30.22,30.22,0,0,1,103.82,179c-2.38-.4-4.75-.86-7.1-1.4-1.29-.28-2.55-.6-3.78-.94-27.15-7.55-39.89-27.7-39.89-51.37,0-12.23,3.4-23.52,10.43-32.61-4-10.18-4-21.86-.54-34.17a3.31,3.31,0,0,1,4-2.3C79,59.34,89,65,95.78,73.23l1-.23a144.42,144.42,0,0,1,29.45-3v-.06a144.36,144.36,0,0,1,29.45,3c.32.07.64.14,1,.23,6.82-8.23,16.75-13.89,28.86-17a3.29,3.29,0,0,1,4,2.3c3.46,12.31,3.45,24-.54,34.17,7,9.09,10.44,20.38,10.44,32.61,0,23.67-12.75,43.82-39.89,51.37C158.2,177,156.93,177.31,155.65,177.6Z"/></g></svg>