<svg id="square-outline" xmlns="http://www.w3.org/2000/svg" width="250" height="250" viewBox="0 0 250 250"><g id="instagram"><path id="outline" d="M250,250H0V0H250ZM237.25,12.75h-225v225h225Z"/><path d="M184.06,49.59A15.88,15.88,0,1,1,166.25,67.4,15.9,15.9,0,0,1,184.06,49.59Z"/><path d="M137.61,87.9a31.84,31.84,0,0,1,18.84,18.85c10.48,28.48-16,54.91-44.44,44.44a31.86,31.86,0,0,1-18.85-18.85C82.68,103.86,109.12,77.42,137.61,87.9Z"/><path d="M202.33,174.7v21.57a4.27,4.27,0,0,1-4.27,4.27H51.94a4.27,4.27,0,0,1-4.27-4.27V118.59a4.27,4.27,0,0,1,4.27-4.27H68.52a4.25,4.25,0,0,1,4.26,4.51c-.08,1.14-.11,2.28-.11,3.43a52.33,52.33,0,1,0,104.66,0c0-1.15,0-2.29-.11-3.43a4.25,4.25,0,0,1,4.26-4.51h16.58a4.27,4.27,0,0,1,4.27,4.27Z"/></g></svg>