<svg id="square-outline" xmlns="http://www.w3.org/2000/svg" width="250" height="250" viewBox="0 0 250 250"><g id="linkedin"><path id="outline" d="M250,250H0V0H250ZM237.25,12.75h-225v225h225Z"/><g id="shape"><path d="M86.76,59.27c0,11.59-8.84,20.65-21.48,20.65S43.79,70.86,43.79,59.27s8.85-20.64,21.49-20.64S86.76,47.69,86.76,59.27Z"/><rect x="46.53" y="99.09" width="37.5" height="112.28"/><path d="M206.21,129v82.37h-37.5V135.74c0-10.32-3.37-13.06-8.42-13.06-6.11,0-11.59,4.43-16.86,12.85v75.84h-37.5V99.09h32.66l2.74,12.64c9.9-11.17,20.43-16.43,34.12-16.43C194.41,95.3,206.21,107.51,206.21,129Z"/></g></g></svg>