<svg id="square-outline" xmlns="http://www.w3.org/2000/svg" width="250" height="250" viewBox="0 0 250 250"><g id="reddit"><path id="outline" d="M250,250H0V0H250ZM237.25,12.75h-225v225h225Z"/><path id="shape" d="M221,126.6a21.57,21.57,0,0,0-37-15.07C170,102,151,95.8,130,95l8.3-44.37,30.14,6.18a15,15,0,1,0,1.82-8.87l-39.16-8L120.82,95c-21.3.76-40.49,7-54.65,16.77a21.56,21.56,0,1,0-24.06,34.72,40.43,40.43,0,0,0-.45,6c0,31.83,37.42,57.62,83.58,57.62s83.58-25.79,83.58-57.62a40.63,40.63,0,0,0-.5-6.25A21.57,21.57,0,0,0,221,126.6ZM77,141.53A14.93,14.93,0,1,1,92,156.46,14.93,14.93,0,0,1,77,141.53Zm82.26,38a57.29,57.29,0,0,1-69,0c-3.3-2.5,0-8.16,3.29-5.63,18.8,14.23,43.64,14,62.4,0C159.35,171.43,162.6,177.09,159.28,179.57Zm-1.65-23.11a14.93,14.93,0,1,1,14.93-14.93A14.92,14.92,0,0,1,157.63,156.46Z"/></g></svg>