<svg id="square-outline" xmlns="http://www.w3.org/2000/svg" width="250" height="250" viewBox="0 0 250 250"><g id="skype"><path id="outline" d="M250,250H0V0H250ZM237.25,12.75h-225v225h225Z"/><path d="M213.15,123.64A86.77,86.77,0,0,0,100.43,40.9a44.8,44.8,0,0,0-58.19,62,86.73,86.73,0,0,0,104.85,105,44.8,44.8,0,0,0,62-58A86.62,86.62,0,0,0,213.15,123.64ZM136.4,108.58c20.94,6,32.71,14.75,32.71,33.7,0,21.94-20.74,34.9-47.07,34.9-18.13,0-33.51-6.23-43.89-15.41l-.08-.07-.31-.27h0a11.85,11.85,0,1,1,17.79-15.37c7.5,5.19,16.35,8.59,25.69,8.59,9.57,0,15.35-3.59,15.35-10,0-7.17-3.18-9.37-22.33-14.75C93.32,123.93,83,113.16,83,96.8c0-18.14,16.55-32.3,43.27-32.3,14.82,0,28.14,4.64,37.83,12.13a10.53,10.53,0,0,1,5.06,8.83c0,6-5.31,10.79-11.86,10.79A12.26,12.26,0,0,1,147.83,92a46.22,46.22,0,0,0-20.41-5c-8.57,0-12.77,3.19-12.77,8C114.65,100.6,117.45,103,136.4,108.58Z"/></g></svg>