<svg id="square-outline" xmlns="http://www.w3.org/2000/svg" width="250" height="250" viewBox="0 0 250 250"><g id="slack"><path id="outline" d="M250,250H0V0H250ZM237.25,12.75h-225v225h225Z"/><g id="shape"><rect x="130.41" y="24.71" width="42.61" height="95.15" rx="21.3"/><rect x="77.04" y="130.14" width="42.61" height="95.15" rx="21.3"/><rect x="156.62" y="103.87" width="42.61" height="95.15" rx="21.3" transform="translate(26.48 329.37) rotate(-90)"/><rect x="50.77" y="50.98" width="42.61" height="95.15" rx="21.3" transform="translate(-26.48 170.63) rotate(-90)"/><path d="M225.5,98.19v.72a20.95,20.95,0,0,1-20.95,21H183.61V98.19a20.95,20.95,0,0,1,41.89,0Z"/><path d="M98,25.08h.72a20.95,20.95,0,0,1,21,20.94V67H98a20.94,20.94,0,0,1,0-41.88Z"/><path d="M24.5,151.8v-.71a20.95,20.95,0,0,1,21-21H66.39V151.8a20.95,20.95,0,1,1-41.89,0Z"/><path d="M152.07,224.92h-.72A20.93,20.93,0,0,1,130.41,204V183h21.66a20.94,20.94,0,1,1,0,41.88Z"/></g></g></svg>