<svg id="square-outline" xmlns="http://www.w3.org/2000/svg" width="250" height="250" viewBox="0 0 250 250"><g id="snapchat"><path id="outline" d="M250,250H0V0H250ZM237.25,12.75h-225v225h225Z"/><path id="shape" d="M213.86,166.47s-14.1.89-30.88-16.07-6.61-21.24-6.61-21.24-1.22.83,11.79-4.78c13.24-5.71,11.42-12.36,5.71-13.79s-18.53,2.15-18.53,2.15l0-16.78s1.43-23.21-13.92-39.27C150.21,45,133.38,43.52,125,43.58H125c-8.35-.06-25.18,1.42-36.35,13.11C73.27,72.75,74.7,96,74.7,96l0,16.78s-12.82-3.57-18.53-2.15-7.53,8.08,5.71,13.79c13,5.61,11.79,4.78,11.79,4.78S83.8,133.44,67,150.4s-30.88,16.07-30.88,16.07-5.89,6.78,9.1,9.63,14.28,4.11,14.28,4.11,4.65.89,1.61,4.64-8.21,8,6.25,5.89,18.56-1.78,21.78-.18,13.59,12.14,20.45,14.28c3.23,1,9.56,1.43,15.36,1.58H125c5.8-.15,12.13-.57,15.36-1.58,6.86-2.14,17.24-12.67,20.45-14.28s7.32-2,21.78.18,9.28-2.14,6.25-5.89,1.61-4.64,1.61-4.64-.72-1.25,14.28-4.11S213.86,166.47,213.86,166.47Z"/></g></svg>