<svg id="square-outline" xmlns="http://www.w3.org/2000/svg" width="250" height="250" viewBox="0 0 250 250"><g id="soundcloud"><path id="outline" d="M250,250H0V0H250ZM237.25,12.75h-225v225h225Z"/><g id="shape"><path d="M129.61,86.11v81.61a1.62,1.62,0,0,0,.17.75,2.73,2.73,0,0,0,2.42,1.62h73.39l.23,0c1.14-.15,10.82-1.59,15.7-7.76,5.18-6.57,12.67-17.19,2.47-32.58-9.83-14.83-28.19-10-29.51-9.59l-.14,0-1.09.42a44,44,0,0,0-14.51-28.82C164.66,79,149,79.93,149,79.93s-8.9.21-13.61,1.9-4.5,1.75-4.5,1.75A2.83,2.83,0,0,0,129.61,86.11Z"/><path d="M24.51,134.65a1.14,1.14,0,0,0-2.27,0l-1.3,11.53,1.3,11.54a1.14,1.14,0,0,0,2.27,0l1.3-11.54Z"/><path d="M32.86,127.67a1.1,1.1,0,0,0-2.15,0L28.8,146.32l1.91,18.38a1.1,1.1,0,0,0,2.15,0l1.9-18.38Z"/><path d="M41.63,123.91c-.1-1.45-2.78-1.45-2.88,0l-1.63,22.58,1.63,21.26c.11,1.45,2.77,1.45,2.88,0l1.63-21.26Z"/><path d="M50,123.44c-.1-1.48-2.74-1.48-2.85,0l-1.61,23.07,1.61,21.71c.11,1.47,2.74,1.47,2.85,0l1.61-21.71Z"/><path d="M58.41,125c-.1-1.45-2.71-1.45-2.81,0l-1.6,22,1.6,21.76c.1,1.45,2.71,1.45,2.81,0L60,146.92Z"/><path d="M67.14,112.11a1.59,1.59,0,1,0-3.18,0l-1.8,34.41L64,168.68c.13,1.5,3.06,1.5,3.18,0l1.8-22.16Z"/><path d="M75.43,104.31c-.11-2.69-2.83-2.69-2.93,0l-1.66,42,1.66,22.16c.11,1.5,2.81,1.5,2.92,0l1.66-22.16Z"/><path d="M84,100.64c-.12-2.93-3.11-2.93-3.23,0l-1.82,45.74,1.82,22.16c.13,1.5,3.11,1.5,3.23,0l1.83-22.16Z"/><path d="M92.19,99.35c-.1-3-2.73-3-2.83,0l-1.6,47.24,1.6,22.16c.11,1.5,2.72,1.5,2.83,0l1.6-22.16Z"/><path d="M100.65,100.24c-.11-3-2.83-3-2.93,0l-1.66,46.55,1.66,21.83c.11,1.48,2.81,1.48,2.93,0l1.66-21.83Z"/><path d="M109.3,102.06c-.12-2.92-3.3-2.92-3.42,0l-1.94,45.52,1.94,21.35c.13,1.45,3.29,1.45,3.42,0l1.94-21.35Z"/><path d="M117.86,93.81c-.14-3.45-3.59-3.45-3.72,0L112,147.51l2.11,21.35c.14,1.45,3.58,1.45,3.72,0L120,147.51Z"/><path d="M126.28,88.57c-.11-3.66-3-3.66-3.14,0l-1.78,57.1,1.78,22.7c.12,1.54,3,1.54,3.14,0l1.78-22.7Z"/></g></g></svg>