<svg id="square-outline" xmlns="http://www.w3.org/2000/svg" width="250" height="250" viewBox="0 0 250 250"><g id="spotify"><path id="outline" d="M250,250H0V0H250ZM237.25,12.75h-225v225h225Z"/><path id="shape" d="M125,25.05A99.95,99.95,0,1,0,225,125,100,100,0,0,0,125,25.05Zm37.77,146.78c-25.38-15.7-59.55-18.53-87.85-9-7.34,2.48-10.47-9.12-3.19-11.57,31.17-10.5,69.17-7.06,97.1,10.21C175.39,165.53,169.36,175.9,162.77,171.83Zm9.33-26.6C143,128.87,104.66,124,73,134c-10.35,3.26-14.74-13-4.46-16.2,11.58-3.65,24.33-4.93,36.4-5.26a146,146,0,0,1,75.62,18.23C190,136,181.54,150.53,172.1,145.23Zm13.33-31.15c-23.17-14.69-51-18.58-78-17.53-14.17.54-26.91,1.89-40.67,5.56-10.47,2.8-14.9-13.41-4.46-16.2,15-4,30.92-5.7,46.35-6.21,29.4-1,60.08,3.9,85.26,19.88C203,105.36,194.59,119.89,185.43,114.08Z"/></g></svg>