<svg id="square-outline" xmlns="http://www.w3.org/2000/svg" width="250" height="250" viewBox="0 0 250 250"><g id="stackoverflow"><path id="outline" d="M250,250H0V0H250ZM237.25,12.75h-225v225h225Z"/><g id="shape"><polygon points="174.94 195.55 68.89 195.55 68.89 149.38 53.5 149.38 53.5 195.55 53.5 210.94 68.89 210.94 174.94 210.94 190.33 210.94 190.33 195.55 190.33 149.38 174.94 149.38 174.94 195.55"/><rect x="82.82" y="164.77" width="76.26" height="15.39"/><rect x="115.72" y="106.78" width="15.39" height="76.26" transform="translate(-45.25 233.15) rotate(-77.2)"/><rect x="124.45" y="80.85" width="15.39" height="76.26" transform="translate(-33.22 184.35) rotate(-63.57)"/><rect x="139.54" y="56.58" width="15.39" height="76.26" transform="translate(-19.53 147.99) rotate(-50.47)"/><rect x="160.16" y="36.29" width="15.39" height="76.26" transform="translate(-11.68 112.92) rotate(-36.01)"/></g></g></svg>