<svg id="square-outline" xmlns="http://www.w3.org/2000/svg" width="250" height="250" viewBox="0 0 250 250"><g id="twiter"><path id="outline" d="M250,250H0V0H250ZM237.25,12.75h-225v225h225Z"/><path id="shape" d="M211.38,76.11a85.23,85.23,0,0,1-18.27,5.33v0c7.55-5.16,12.6-11.5,14.13-18.44-4.23,4.13-11.67,7.27-20.63,8.55a32.36,32.36,0,0,0-55.67,22,31.82,31.82,0,0,0,.87,7.36c-29.78-4.44-51.87-14.52-66.36-32a31.33,31.33,0,0,0-3.81,15,30.59,30.59,0,0,0,13.84,25.87,29.88,29.88,0,0,1-15.07-5.1c.24,16.16,11.18,29.54,25.59,32.4a41.36,41.36,0,0,1-6.93.58,42.11,42.11,0,0,1-6.31-.48c2.64,12.13,15,21.31,29.77,21.31.52,0,1,0,1.55,0-10.92,8.37-23.76,13.2-37.51,13.2a59.57,59.57,0,0,1-27.94-7,94.74,94.74,0,0,0,63,23.77c51.84,0,93.86-41.06,93.86-91.72q0-1,0-2.07c0-.35,0-.7,0-1.06s0-.62,0-.94A52.76,52.76,0,0,0,211.38,76.11Z"/></g></svg>