<svg id="square-outline" xmlns="http://www.w3.org/2000/svg" width="250" height="250" viewBox="0 0 250 250"><g id="vimeo"><path id="outline" d="M250,250H0V0H250ZM237.25,12.75h-225v225h225Z"/><path id="shape" d="M134.68,88.66s2.87-29.38,38.7-43.35,46.22,18.63,44.43,32.25-14.33,54.1-39.41,83.84S134.68,203,134.68,203s-34,22.57-49.08-26.87-22.93-74.17-22.93-74.17-5-19-17.56-7.17S27.2,98,37.23,80.42s40.84-34,40.84-34S106.38,31.7,110,69.32,126.09,146,130,148.86s20.78-14,25.43-26.88,9-26.51,3.23-33.32S143.28,81.5,134.68,88.66Z"/></g></svg>