<svg id="square-outline" xmlns="http://www.w3.org/2000/svg" width="250" height="250" viewBox="0 0 250 250"><g id="vine"><path id="outline" d="M250,250H0V0H250ZM237.25,12.75h-225v225h225Z"/><path id="shape" d="M190.53,125c10.72-1.2,11.73-2.05,11.73-2.05l-.34,21.6a48.46,48.46,0,0,1-10.71,3.23c-7.31,1.53-9.52,1-9.52,1a287.74,287.74,0,0,1-17.52,28.4c-9.7,13.6-29.76,32-29.76,32s-10.38,10.54-21.77,1.53S82.88,181.3,75.22,164.8s-14.79-33.67-20.91-58.16A269.3,269.3,0,0,1,47,62.77H77.61S82,98.13,87.14,114.46s11.39,31.12,11.39,31.12,3.23,7,10.37,19a91.69,91.69,0,0,0,14.46,18.87s9.78-5.14,18-19.73c8-14.14,7.48-13.43,7.48-13.43l4.25-9S122.5,124.83,122,87.93s18.71-46.09,18.71-46.09,22.61-14,44.37,0S204,84.7,200.9,96.6s-5.1,14.12-5.1,14.12-26.18,1-24.65-9.53,3.73-19.38,2-26.35S168.59,62.42,162.3,63.1,150.39,68.72,150.22,83s2.39,19.55,9.7,29.59S179.82,126.19,190.53,125Z"/></g></svg>