<svg id="square-outline" xmlns="http://www.w3.org/2000/svg" width="250" height="250" viewBox="0 0 250 250"><g id="whatsup"><path id="outline" d="M250,250H0V0H250ZM237.25,12.75h-225v225h225Z"/><g id="shape"><path d="M169.89,142.32c-1.41-.57-17.3-8.33-17.3-8.33s-3.74-2-5.5.28-7.34,9.18-7.34,9.18-.92,2.61-6.78-.43-12.72-6.4-19.76-14.13-8.69-11.54-8.69-11.54-1.37-1.75.9-4a84.51,84.51,0,0,0,5.72-6.83s1.27-1.64-.48-5.82l-7-16.73s-1.13-2.89-3.39-2.89H95.13a4.12,4.12,0,0,0-1.85.43c-3,1.53-12.4,7.27-12,19.82.49,15,13.48,30.85,18.85,36.78S117,154.6,127.68,158.69s15.74,5.51,15.74,5.51,10.73,2.61,16.8-1.41,10.94-8.26,11.15-13.27,0-5.3,0-5.3A2.3,2.3,0,0,0,169.89,142.32Z"/><path d="M126.38,31.29A91.75,91.75,0,0,0,47.7,170.22L31.89,218.71l49.16-15.9a91.14,91.14,0,0,0,43.33,11.94c50.61,1.09,92.93-39.62,93.72-90.24A91.74,91.74,0,0,0,126.38,31.29ZM127.72,199a75.59,75.59,0,0,1-43.27-12.61L55,196.26,64.52,167A75.91,75.91,0,1,1,127.72,199Z"/></g></g></svg>