<svg id="square-outline" xmlns="http://www.w3.org/2000/svg" width="250" height="250" viewBox="0 0 250 250"><g id="yelp"><path id="outline" d="M250,250H0V0H250ZM237.25,12.75h-225v225h225Z"/><path d="M125.9,170.44a16.47,16.47,0,0,1,.33,3.5l-.28,40s.87,10.25-11.24,7.92-23-6.88-27.66-9.74-10.26-8-4.62-14.54,25.89-29.42,25.89-29.42S122.32,153.36,125.9,170.44Z"/><path d="M140.67,124.27a16.78,16.78,0,0,1,1.81-3l24-32s5.39-8.77,13.75.29,14.4,19.17,16.48,24.26,3.52,12.51-4.91,14.44-38.3,8.32-38.3,8.32S133.4,140.14,140.67,124.27Z"/><path d="M103.7,150.43a16.46,16.46,0,0,1-3.21,1.43l-38,12.48s-9.44,4.1-11.09-8.12-.8-24,.41-29.33,4.29-12.26,12.31-9S100.28,133,100.28,133,118.76,141.6,103.7,150.43Z"/><path d="M152.05,154.21a16.88,16.88,0,0,1,3.44.74l38,12.37s10,2.28,4.15,13.11-13.51,19.8-17.66,23.42-10.71,7.36-15.25,0-20.21-33.58-20.21-33.58S134.69,152.44,152.05,154.21Z"/><path d="M105.06,108.59,69.61,52.66S62.92,42.9,72.29,39,79,34.73,95.16,30.59,117,28.18,117,28.18s5,0,5.09,6.69,4.28,70.91,4.28,70.91S125.67,138.56,105.06,108.59Z"/></g></svg>