<svg id="circle" xmlns="http://www.w3.org/2000/svg" width="250" height="250" viewBox="0 0 250 250"><g id="dribbble"><path d="M135.86,126.5c-2.37-5.31-4.81-10.4-7.27-15.23-20.52,6.37-44.33,9.57-71.27,9.57q-6.09,0-12.38-.22-.12,2.17-.12,4.38A79.88,79.88,0,0,0,66.2,179.45C86.38,148.08,112.15,133.13,135.86,126.5Z"/><path d="M134.49,96.09c22.95-8.79,36.66-20.67,44.59-30.24a80.13,80.13,0,0,0-76.15-17.94,384.51,384.51,0,0,1,26.76,39.71C131.27,90.32,132.88,93.15,134.49,96.09Z"/><path d="M122.62,100.09q-1.71-3.07-3.4-6A367.57,367.57,0,0,0,90.84,52.48a80.45,80.45,0,0,0-44.28,55.86C78.33,109.29,103.21,105.8,122.62,100.09Z"/><path d="M75.38,187.93a80,80,0,0,0,81.3,10.72,248.5,248.5,0,0,0-16-60.77C113.46,144.94,91.61,161.7,75.38,187.93Z"/><path d="M161.26,134.46c-2.83.23-5.62.54-8.35.95a263.46,263.46,0,0,1,15.36,57.07,80.37,80.37,0,0,0,35.91-54.82A148.72,148.72,0,0,0,161.26,134.46Z"/><path d="M213.39,36.61A125,125,0,1,0,250,125,124.61,124.61,0,0,0,213.39,36.61Zm2.76,104.18a92.75,92.75,0,0,1-46.33,65.1,89.42,89.42,0,0,1-11.94,5.56,92.28,92.28,0,0,1-88.61-12.69,89.48,89.48,0,0,1-9.55-8.29A92.18,92.18,0,0,1,32.5,125c0-1.68,0-3.34.14-5a89.89,89.89,0,0,1,1.48-12.25,92.72,92.72,0,0,1,48.69-65,89.57,89.57,0,0,1,11.85-5.09,92.38,92.38,0,0,1,91.48,18,93.14,93.14,0,0,1,8.94,9A92.09,92.09,0,0,1,217.5,125c0,1.09,0,2.19-.07,3.29A90.17,90.17,0,0,1,216.15,140.79Z"/><path d="M168.38,92.19a134.57,134.57,0,0,1-28.07,15c2.65,5.25,5.26,10.79,7.78,16.59,4.37-.77,8.62-1.27,12.67-1.59a160.16,160.16,0,0,1,44.42,3.09V125a79.73,79.73,0,0,0-17.61-50.08A104.26,104.26,0,0,1,168.38,92.19Z"/></g></svg>