<svg id="circle" xmlns="http://www.w3.org/2000/svg" width="250" height="250" viewBox="0 0 250 250"><g id="github"><path d="M213.39,36.61A125,125,0,1,0,250,125,124.61,124.61,0,0,0,213.39,36.61ZM155.9,152.29c-1.15.32-2.32.61-3.52.88-2.18.5-4.38.92-6.59,1.29a27.94,27.94,0,0,1,12.19,23v31.78H92.07v-11c0-.85.06-1.7.07-2.55A40.44,40.44,0,0,1,52.24,178c-.91-1.33-1.77-2.7-2.61-4.1-2.5-4.21-4.73-8.66-7-13A31,31,0,0,0,39,156.52a22.41,22.41,0,0,0-10.06-5.94q-1.58-.75-3.21-1.44a1.13,1.13,0,0,1,.41-2.16h1.26a33.29,33.29,0,0,1,21.43,6.23,28.38,28.38,0,0,1,2.91,2.49q1.53,1.78,2.94,3.68c1,1.26,1.88,2.56,2.8,3.85,6.95,12,20.49,20.44,34.55,17.74a76.9,76.9,0,0,1,.46-8,27.85,27.85,0,0,1,11.74-18.46c-2.22-.36-4.42-.8-6.61-1.29-1.19-.26-2.37-.57-3.51-.88-25.25-7-37.1-25.76-37.1-47.78,0-11.37,3.16-21.87,9.7-30.33C63,64.77,63,53.91,66.16,42.46a3.08,3.08,0,0,1,3.71-2.15c11.26,2.88,20.5,8.15,26.83,15.8l.89-.22A134.21,134.21,0,0,1,125,53.09V53a134.29,134.29,0,0,1,27.39,2.81c.29.07.59.13.88.21,6.34-7.65,15.57-12.92,26.84-15.79a3.06,3.06,0,0,1,3.7,2.14c3.22,11.45,3.21,22.31-.5,31.78,6.54,8.45,9.71,19,9.71,30.32C193,126.53,181.14,145.27,155.9,152.29Z"/></g></svg>