<svg id="circle" xmlns="http://www.w3.org/2000/svg" width="250" height="250" viewBox="0 0 250 250"><g id="instagram"><path d="M213.39,36.61A125,125,0,1,0,250,125,124.61,124.61,0,0,0,213.39,36.61ZM178.07,57.24a14.27,14.27,0,1,1-16,16A14.32,14.32,0,0,1,178.07,57.24ZM136.33,91.66a28.66,28.66,0,0,1,16.93,16.93c9.41,25.6-14.34,49.35-39.93,39.93A28.57,28.57,0,0,1,96.4,131.6C87,106,110.73,82.25,136.33,91.66ZM194.47,189a3.83,3.83,0,0,1-3.83,3.84H59.36A3.83,3.83,0,0,1,55.53,189V119.24a3.82,3.82,0,0,1,3.83-3.83h14.9a3.81,3.81,0,0,1,3.82,4c-.06,1-.1,2-.1,3.07a47,47,0,1,0,94,0c0-1,0-2.06-.1-3.07a3.81,3.81,0,0,1,3.82-4h14.9a3.82,3.82,0,0,1,3.83,3.83Z"/></g></svg>