<svg id="circle" xmlns="http://www.w3.org/2000/svg" width="250" height="250" viewBox="0 0 250 250"><g id="linkedin"><path d="M213.39,36.61A125,125,0,1,0,250,125,124.61,124.61,0,0,0,213.39,36.61ZM90.19,198.38H58.32V103H90.19ZM74.25,86.7C63.51,86.7,56,79,56,69.15s7.51-17.53,18.25-17.53S92.5,59.32,92.5,69.15,85,86.7,74.25,86.7ZM194,198.38H162.13V134.13c0-8.77-2.86-11.1-7.15-11.1-5.19,0-9.85,3.76-14.33,10.91v64.44H108.79V103h27.75l2.33,10.74c8.41-9.49,17.36-14,29-14C184,99.76,194,110.14,194,128.4Z"/></g></svg>