<svg id="circle" xmlns="http://www.w3.org/2000/svg" width="250" height="250" viewBox="0 0 250 250"><g id="skype"><path d="M213.39,36.61A125,125,0,1,0,250,125,124.61,124.61,0,0,0,213.39,36.61ZM204.5,163.17a40.4,40.4,0,0,1-59.58,35.56,78.22,78.22,0,0,1-94.56-94.68,40.41,40.41,0,0,1,52.48-55.9,78.25,78.25,0,0,1,98,98.26A40.28,40.28,0,0,1,204.5,163.17Z"/><path d="M127.19,89.76a41.67,41.67,0,0,1,18.4,4.48,11,11,0,0,0,8.49,3.83c5.91,0,10.7-4.35,10.7-9.73a9.5,9.5,0,0,0-4.56-8c-8.74-6.75-20.76-10.95-34.12-10.95-24.1,0-39,12.78-39,29.14,0,14.75,9.36,24.47,28.24,29.86,17.27,4.86,20.15,6.84,20.15,13.31,0,5.75-5.22,9-13.85,9A40.91,40.91,0,0,1,98.44,143a10.69,10.69,0,1,0-16,13.87h0l.28.23.08.07c9.36,8.28,23.23,13.9,39.58,13.9,23.74,0,42.45-11.69,42.45-31.48,0-17.08-10.61-25-29.5-30.39-17.09-5-19.61-7.2-19.61-12.23C115.67,92.63,119.45,89.76,127.19,89.76Z"/></g></svg>