<svg id="circle" xmlns="http://www.w3.org/2000/svg" width="250" height="250" viewBox="0 0 250 250"><g id="slack"><path d="M213.39,36.61A125,125,0,1,0,250,125,124.61,124.61,0,0,0,213.39,36.61ZM71.63,149.4a19.07,19.07,0,1,1-38.13,0v-.65a19.07,19.07,0,0,1,19.07-19.07H71.63Zm48.5,47.51a19.4,19.4,0,1,1-38.8,0V149.08a19.4,19.4,0,1,1,38.8,0Zm-19.4-76.59H52.9a19.4,19.4,0,0,1,0-38.8h47.83a19.4,19.4,0,0,1,0,38.8Zm19.4-48.16H100.4a19.07,19.07,0,1,1,0-38.13h.66A19.07,19.07,0,0,1,120.13,53.1Zm9.79-19.07a19.4,19.4,0,1,1,38.8,0v47.83a19.4,19.4,0,0,1-38.8,0ZM149.65,216H149a19.07,19.07,0,0,1-19.07-19.07V177.84h19.73a19.07,19.07,0,1,1,0,38.13Zm47.45-47.49H149.27a19.4,19.4,0,1,1,0-38.8H197.1a19.4,19.4,0,1,1,0,38.8Zm13.81-53.74a19,19,0,0,1-13.48,5.58H178.37V100.6a19.07,19.07,0,1,1,38.13,0v.65A19.06,19.06,0,0,1,210.91,114.74Z"/></g></svg>