<svg id="circle" xmlns="http://www.w3.org/2000/svg" width="250" height="250" viewBox="0 0 250 250"><g id="soundcloud"><path d="M213.39,36.61A125,125,0,1,0,250,125,124.61,124.61,0,0,0,213.39,36.61Zm-185,119.83a1.1,1.1,0,0,1-2.18,0L25,145.36l1.25-11.09a1.1,1.1,0,0,1,2.18,0l1.25,11.09Zm8,6.71a1.05,1.05,0,0,1-2.06,0l-1.84-17.66,1.84-17.93a1.05,1.05,0,0,1,2.06,0l1.84,17.93Zm8.43,2.93c-.1,1.39-2.66,1.39-2.76,0l-1.57-20.43L42.12,124c.1-1.39,2.66-1.39,2.76,0l1.57,21.7Zm8.07.45c-.11,1.42-2.63,1.42-2.74,0l-1.55-20.86,1.55-22.17c.1-1.42,2.64-1.42,2.74,0l1.55,22.17ZM61,167c-.1,1.39-2.6,1.39-2.7,0l-1.54-20.91L58.31,125c.1-1.4,2.6-1.4,2.7,0l1.53,21.11Zm8.39,0c-.12,1.45-2.94,1.45-3.05,0l-1.73-21.29,1.73-33.06a1.53,1.53,0,1,1,3.05,0l1.73,33.06Zm8-.2c-.11,1.44-2.71,1.44-2.82,0L73,145.48l1.59-40.36c.11-2.59,2.72-2.59,2.82,0L79,145.48Zm8.22.07c-.12,1.44-3,1.44-3.1,0l-1.76-21.29,1.76-44c.11-2.82,3-2.82,3.1,0l1.76,44Zm7.89.2c-.1,1.45-2.61,1.45-2.72,0l-1.54-21.29,1.54-45.4c.1-2.91,2.62-2.91,2.72,0L95,145.75Zm8.13-.12c-.11,1.42-2.71,1.42-2.82,0l-1.59-21,1.59-44.74c.1-2.86,2.72-2.86,2.82,0l1.59,44.74Zm8.31.3c-.12,1.39-3.16,1.39-3.29,0l-1.86-20.52L106.62,103c.12-2.8,3.18-2.8,3.3,0l1.86,43.75Zm8.23-.07c-.14,1.39-3.44,1.39-3.58,0l-2-20.52,2-51.61c.13-3.31,3.45-3.31,3.58,0l2,51.61Zm8.09-.48c-.12,1.48-2.9,1.48-3,0l-1.71-21.81L123.21,90c.11-3.52,2.91-3.52,3,0l1.71,54.87Zm76.43,1.64-.21,0H131.92a2.61,2.61,0,0,1-2.32-1.55,1.57,1.57,0,0,1-.17-.73V87.62a2.7,2.7,0,0,1,1.22-2.42s.17-.18,4.33-1.68c4.52-1.63,13.07-1.83,13.07-1.83s15.06-.92,28.59,11.39a42.25,42.25,0,0,1,13.94,27.7l1-.4.14,0c1.27-.36,18.91-5,28.35,9.21,9.81,14.79,2.62,25-2.37,31.31C213.06,166.78,203.76,168.17,202.66,168.31Z"/></g></svg>