<svg id="circle" xmlns="http://www.w3.org/2000/svg" width="250" height="250" viewBox="0 0 250 250"><g id="spotify"><path d="M213.39,36.61A125,125,0,1,0,250,125,124.61,124.61,0,0,0,213.39,36.61ZM125,213.5A88.5,88.5,0,1,1,213.5,125,88.5,88.5,0,0,1,125,213.5Z"/><path d="M174.21,130.06a129.29,129.29,0,0,0-67-16.14c-10.68.3-22,1.43-32.23,4.66-9.1,2.86-5.21,17.23,4,14.34,28-8.81,61.94-4.49,87.73,10C175.06,147.6,182.57,134.76,174.21,130.06Z"/><path d="M163.81,157.29c-24.73-15.29-58.38-18.33-86-9-6.45,2.17-3.68,12.44,2.82,10.25,25-8.44,55.31-5.94,77.78,8C164.28,170.07,169.62,160.88,163.81,157.29Z"/><path d="M186,102.49c-22.3-14.14-49.47-18.46-75.49-17.6-13.67.45-27.79,2-41,5.5-9.24,2.47-5.32,16.82,4,14.34,12.18-3.25,23.46-4.44,36-4.92,23.9-.93,48.55,2.51,69.07,15.52C186.62,120.48,194.09,107.61,186,102.49Z"/></g></svg>