<svg id="circle" xmlns="http://www.w3.org/2000/svg" width="250" height="250" viewBox="0 0 250 250"><g id="twiter"><path d="M213.39,36.61A125,125,0,1,0,250,125,124.61,124.61,0,0,0,213.39,36.61Zm-27.19,60c0,.27,0,.54,0,.81s0,.61,0,.92c0,.6,0,1.2,0,1.8,0,44-36.48,79.63-81.49,79.63A82.24,82.24,0,0,1,50,159.13a51.71,51.71,0,0,0,24.25,6.11,53.22,53.22,0,0,0,32.57-11.46q-.66,0-1.35,0c-12.85,0-23.55-8-25.84-18.51a36.32,36.32,0,0,0,5.48.42,36.92,36.92,0,0,0,6-.5c-12.51-2.49-22-14.1-22.21-28.13A26,26,0,0,0,82,111.51,26.55,26.55,0,0,1,70,89.05,27.23,27.23,0,0,1,73.28,76c12.58,15.21,31.76,24,57.62,27.82a27.46,27.46,0,0,1-.75-6.39,28.09,28.09,0,0,1,48.33-19.12c7.78-1.12,14.24-3.84,17.92-7.44-1.33,6-5.72,11.54-12.28,16a0,0,0,0,1,0,0A73.64,73.64,0,0,0,200,82.26,45.83,45.83,0,0,1,186.2,96.6Z"/></g></svg>