<svg id="circle" xmlns="http://www.w3.org/2000/svg" width="250" height="250" viewBox="0 0 250 250"><g id="vimeo"><path d="M213.39,36.61A125,125,0,1,0,250,125,124.61,124.61,0,0,0,213.39,36.61Zm-5.06,45.51C206.72,94.34,195.46,130.7,173,157.4s-39.25,37.31-39.25,37.31S103.14,215,89.63,170.59,69,104,69,104s-4.5-17-15.76-6.44-16.09,2.9-7.08-12.87S82.87,54.13,82.87,54.13s25.42-13.19,28.63,20.59,14.48,68.84,18,71.42,18.66-12.55,22.84-24.13,8-23.8,2.89-29.92-13.83-6.43-21.55,0c0,0,2.57-26.38,34.74-38.92S209.94,69.9,208.33,82.12Z"/></g></svg>