<svg id="circle" xmlns="http://www.w3.org/2000/svg" width="250" height="250" viewBox="0 0 250 250"><g id="vine"><path d="M213.39,36.61A125,125,0,1,0,250,125,124.61,124.61,0,0,0,213.39,36.61Zm-43.3,41.44c-1.59-6.53-4.29-11.62-10.18-11S148.76,72.32,148.6,85.7s2.24,18.29,9.08,27.68S176.3,126.11,186.33,125s11-1.92,11-1.92L197,143.3a45.8,45.8,0,0,1-10,3c-6.84,1.43-8.92.95-8.92.95a267.86,267.86,0,0,1-16.39,26.59c-9.08,12.73-27.86,29.92-27.86,29.92s-9.7,9.86-20.37,1.43-27.85-27.53-35-43a286.78,286.78,0,0,1-19.57-54.43,252.93,252.93,0,0,1-6.84-41H80.65s4.13,33.1,8.91,48.37,10.67,29.13,10.67,29.13,3,6.53,9.71,17.83a85.8,85.8,0,0,0,13.52,17.66s9.16-4.81,16.87-18.46c6.62-11.71,7-12.54,7-12.57h0l4-8.43s-28.65-15.44-29.12-50S139.7,47.17,139.7,47.17s21.16-13.05,41.53,0S198.9,87.28,196,98.42s-4.77,13.22-4.77,13.22-24.5.94-23.07-8.92S171.68,84.58,170.09,78.05Zm-22.76,70.67h0Z"/></g></svg>