<svg id="circle" xmlns="http://www.w3.org/2000/svg" width="250" height="250" viewBox="0 0 250 250"><g id="whatsup"><path d="M125,61.85a61.55,61.55,0,0,0-49,97.24l-7.75,23.69,23.91-8.05A61.56,61.56,0,1,0,125,61.85Zm37.63,83c-.17,4.06-4.12,7.5-9,10.76s-13.62,1.14-13.62,1.14-4.12-1.14-12.76-4.46-18-11.91-22.32-16.71S90,117.92,89.57,105.79C89.23,95.61,96.82,91,99.28,89.71a3.4,3.4,0,0,1,1.5-.35H105c1.83,0,2.75,2.35,2.75,2.35l5.67,13.56c1.41,3.39.38,4.72.38,4.72a69.55,69.55,0,0,1-4.63,5.54c-1.85,1.85-.73,3.26-.73,3.26s1.33,3.09,7,9.36,11.27,9,16,11.46,5.5.35,5.5.35,4.52-5.61,5.95-7.44,4.46-.23,4.46-.23,12.88,6.29,14,6.75a1.88,1.88,0,0,1,1.2,1.55S162.77,140.81,162.6,144.88Z"/><path d="M213.39,36.61A125,125,0,1,0,250,125,124.61,124.61,0,0,0,213.39,36.61Zm-88.9,161.16a74,74,0,0,1-35.12-9.68L49.5,201l12.82-39.31A74.39,74.39,0,1,1,200.49,124.6C199.85,165.64,165.54,198.65,124.49,197.77Z"/></g></svg>