<svg id="circle" xmlns="http://www.w3.org/2000/svg" width="250" height="250" viewBox="0 0 250 250"><g id="yelp"><path d="M213.39,36.61A125,125,0,1,0,250,125,124.61,124.61,0,0,0,213.39,36.61ZM54.38,155c-1.59-11.73-.76-23,.4-28.14s4.11-11.77,11.81-8.65,34.68,14.54,34.68,14.54,17.74,8.22,3.29,16.7a15.8,15.8,0,0,1-3.09,1.37L65,162.76S56,166.69,54.38,155Zm60.74,63c-11.62-2.23-22-6.6-26.54-9.35s-9.85-7.65-4.44-14S109,166.4,109,166.4s13.44-14.19,16.87,2.21a15.81,15.81,0,0,1,.32,3.36l-.27,38.37S126.75,220.18,115.12,217.94Zm-9.25-108.69-34-53.68s-6.42-9.37,2.57-13.09,6.42-4.11,22-8.09,20.93-2.31,20.93-2.31,4.75,0,4.87,6.42,4.11,68.05,4.11,68.05S125.64,138,105.87,109.25Zm34.17,15a15.81,15.81,0,0,1,1.74-2.9l23-30.71s5.16-8.42,13.19.28,13.82,18.4,15.82,23.28,3.38,12-4.72,13.86-36.75,8-36.75,8S133.07,139.53,140,124.3Zm54.68,53.9c-5.65,10.4-13,19-16.95,22.47s-10.27,7.06-14.63,0-19.39-32.23-19.39-32.23S134.3,151.33,151,153a16.2,16.2,0,0,1,3.3.72l36.48,11.87S200.37,167.8,194.72,178.2Z"/></g></svg>